<svg width="180" height="180" viewBox="0 0 180 180" xmlns="http://www.w3.org/2000/svg">
    <path id="Path" fill="#000000" d="M 37.5 67.492493 C 37.517502 84.246925 45.542019 99.983788 59.092499 109.837502 L 59.099998 109.845001 C 63.400608 112.997498 68.158127 115.473625 73.207497 117.1875 L 73.590004 117.330002 C 76.433357 118.25808 79.351768 118.938118 82.3125 119.362503 C 84.85273 119.768677 87.420074 119.981781 89.992493 120 L 90 120 C 92.625008 120 95.175003 119.744995 97.702499 119.37001 L 99.067497 119.159996 C 101.587502 118.717506 104.047501 118.117493 106.425003 117.337502 L 106.740005 117.217499 C 127.500008 110.197502 142.5 90.584999 142.5 67.492493 C 142.5 38.549988 118.949989 15 90 15 C 61.050003 15 37.5 38.549988 37.5 67.492493 Z M 90 30 C 110.669991 30 127.500008 46.815002 127.500008 67.492493 L 112.5 67.492493 C 112.483467 55.074158 102.418343 45.012405 90 45 L 90 30 Z M 56.407497 125.962502 L 56.407497 165 L 90 153.75 L 123.592499 165 L 123.599998 125.962502 C 102.821831 138.007202 77.185677 138.007202 56.407497 125.962502 Z"/>
</svg>
