<svg width="800" height="700" viewBox="0 0 800 700" xmlns="http://www.w3.org/2000/svg">
    <g id="Group">
        <path id="Path" fill="#003e7e" stroke="none" d="M 774.965698 189.320465 L 699.057129 189.320465 C 712.634277 134.806152 719.62854 77.823303 719.62854 18.989075 L 672.108521 38.120483 C 663.468628 345.046173 445 599.514709 155.148575 663.080444 L 149.182861 681.389038 C 277.342834 655.263306 392.542816 592.726135 483.262848 504.886169 L 538.394226 504.886169 L 611.011414 400.794739 L 683.62854 504.886169 L 775.171448 504.886169 L 654.417114 347.103302"/>
        <path id="path1" fill="#003e7e" stroke="none" d="M 591.057129 296.291901 L 553.411438 246.303314 L 490.257111 246.303314 L 565.342834 344.223328 C 575.422852 329.823303 584.679993 312.749023 591.057129 296.291901"/>
        <path id="path2" fill="#003e7e" stroke="none" d="M 774.965698 189.320465 L 699.057129 189.320465 C 712.634277 134.806152 719.62854 77.823303 719.62854 18.989075 L 672.108521 38.120483 C 663.468628 345.046173 445 599.514709 155.148575 663.080444 L 148.977158 681.389038 C 277.342834 655.263306 392.542816 592.726135 483.057129 504.886169 L 538.188538 504.886169 L 610.805725 400.794739 L 683.422852 504.886169 L 774.965698 504.886169 L 654.211426 347.103302"/>
        <path id="path3" fill="#003e7e" stroke="none" d="M 591.057129 296.291901 L 553.617126 246.303314 L 490.462891 246.303314 L 565.548523 344.223328 C 575.422852 329.823303 584.679993 312.749023 591.057129 296.291901"/>
        <path id="path4" fill="#003e7e" stroke="none" d="M 22.462856 245.891876 L 208.01712 245.891876 L 208.01712 271.400452 L 145.891434 271.400452 L 145.891434 443.994781 L 88.497139 456.543335 L 88.497139 271.400452 L 28.428572 271.400452"/>
        <path id="path5" fill="#003e7e" stroke="none" d="M 268.497131 306.166168 L 337 451.81189 L 337 451.606171 L 404.679962 306.577606 L 404.679962 451.194763 L 461.662872 451.194763 L 461.662872 246.303314 L 404.268555 246.303314 L 353.457184 356.154724 L 303.468567 246.097595 L 240.519989 246.097595 L 240.519989 450.989014 L 268.497131 450.989014"/>
    </g>
</svg>
