<svg width="800" height="640" viewBox="0 0 800 640" xmlns="http://www.w3.org/2000/svg">
    <g id="layer1">
        <g id="g3613">
            <clipPath id="clipPath1">
                <path d="M -470.117791 2041.461742 L 3766.379912 2041.461742 L 3766.379912 -1232.195427 L -470.117791 -1232.195427 L -470.117791 2041.461742 Z"/>
            </clipPath>
            <g id="g3615" clip-path="url(#clipPath1)">
                <g id="g3621">
                    <path id="path3623" fill="#000099" stroke="none" d="M 517.514648 221.075043 C 517.514648 176.131805 476.321136 111.525208 396.731689 111.525208 C 324.636353 111.525208 275.94873 173.323486 275.94873 236.993988 C 275.94873 312.83374 328.380707 367.137939 418.267242 367.137939 L 588.67926 367.137939 C 548.411133 429.872314 478.193329 470.135132 397.667786 470.135132 C 270.326813 470.135132 167.334991 366.201843 167.334991 238.866211 C 167.334991 111.525208 270.326813 7.591919 397.667786 7.591919 C 525.003418 7.591919 628.936707 111.525208 628.936707 238.866211 C 628.936707 264.146118 624.256226 288.489929 617.703613 310.961548 L 360.213287 310.961548 L 360.213287 285.681641 L 451.035889 282.873352 C 496.915222 281.00116 517.514648 257.593445 517.514648 221.075043"/>
                </g>
                <g id="g3625">
                    <path id="path3627" fill="#000099" stroke="none" d="M 56.82711 571.614746 C 56.82711 565.169067 50.91634 555.899048 39.495983 555.899048 C 29.156147 555.899048 22.170204 564.762512 22.170204 573.898804 C 22.170204 584.778931 29.691057 592.572571 42.587769 592.572571 L 67.038567 592.572571 C 61.261524 601.569763 51.183796 607.346802 39.635059 607.346802 C 21.362488 607.346802 6.588237 592.438843 6.588237 574.16626 C 6.588237 555.899048 21.362488 540.985718 39.635059 540.985718 C 57.902283 540.985718 72.815613 555.899048 72.815613 574.16626 C 72.815613 577.792969 72.141624 581.28595 71.200172 584.511475 L 34.259201 584.511475 L 34.259201 580.884766 L 47.289642 580.47821 C 53.869049 580.210754 56.82711 576.851501 56.82711 571.614746"/>
                </g>
            </g>
        </g>
        <g id="g3629">
            <path id="path3631" fill="#000099" stroke="none" d="M 100.348579 561.540405 L 112.977844 543.000366 L 130.437347 543.000366 L 108.944611 572.960754 L 132.186508 605.333618 L 113.646477 605.333618 L 99.808319 585.183472 L 85.841789 605.333618 L 68.37693 605.333618 L 91.212303 573.763123 L 69.050926 543.000366 L 87.585602 543.000366 L 100.348579 561.540405 Z"/>
        </g>
        <g id="g3633">
            <clipPath id="clipPath2">
                <path d="M -470.117791 2041.461742 L 3766.379912 2041.461742 L 3766.379912 -1232.195427 L -470.117791 -1232.195427 L -470.117791 2041.461742 Z"/>
            </clipPath>
            <g id="g3635" clip-path="url(#clipPath2)">
                <g id="g3641">
                    <path id="path3643" fill="#000099" stroke="none" d="M 151.393005 555.226135 C 155.961151 545.554932 164.155991 541.254272 172.484558 541.254272 C 187.52626 541.254272 201.230698 554.017212 201.230698 574.167358 C 201.230698 594.317444 187.52626 607.080444 172.484558 607.080444 C 164.155991 607.080444 155.961151 602.779724 151.393005 593.108521 C 151.125565 592.573608 150.719025 592.707336 150.719025 593.242249 L 150.719025 630.990967 L 134.602158 630.990967 L 134.602158 543.003418 L 150.719025 543.003418 L 150.719025 555.092407 C 150.719025 555.627319 151.125565 555.761047 151.393005 555.226135 M 168.050156 593.782532 C 177.453888 593.782532 185.648743 585.587708 185.648743 574.167358 C 185.648743 562.746948 177.453888 554.552124 168.050156 554.552124 C 158.780151 554.552124 150.451569 562.746948 150.451569 574.167358 C 150.451569 585.587708 158.780151 593.782532 168.050156 593.782532"/>
                </g>
                <g id="g3645">
                    <path id="path3647" fill="#000099" stroke="none" d="M 256.705292 571.614746 C 256.705292 565.169067 250.794525 555.899048 239.374146 555.899048 C 229.034317 555.899048 222.048386 564.762512 222.048386 573.898804 C 222.048386 584.778931 229.569229 592.572571 242.465942 592.572571 L 266.916748 592.572571 C 261.139709 601.569763 251.061981 607.346802 239.513229 607.346802 C 221.240662 607.346802 206.466415 592.438843 206.466415 574.16626 C 206.466415 555.899048 221.240662 540.985718 239.513229 540.985718 C 257.780457 540.985718 272.693787 555.899048 272.693787 574.16626 C 272.693787 577.792969 272.019775 581.28595 271.078369 584.511475 L 234.137375 584.511475 L 234.137375 580.884766 L 247.167816 580.47821 C 253.752579 580.210754 256.705292 576.851501 256.705292 571.614746"/>
                </g>
                <g id="g3649">
                    <path id="path3651" fill="#000099" stroke="none" d="M 327.762909 593.108521 C 323.194763 602.779724 314.999908 607.080444 306.671356 607.080444 C 291.624268 607.080444 277.925201 594.317444 277.925201 574.167358 C 277.925201 554.017212 291.624268 541.254272 306.671356 541.254272 C 314.999908 541.254272 323.194763 545.554932 327.762909 555.226135 C 328.030365 555.761047 328.431549 555.627319 328.431549 555.092407 L 328.431549 516.001099 L 344.553772 516.001099 L 344.553772 605.331299 L 328.431549 605.331299 L 328.431549 593.242249 C 328.431549 592.707336 328.030365 592.573608 327.762909 593.108521 M 311.105743 554.552124 C 301.702026 554.552124 293.507172 562.746948 293.507172 574.167358 C 293.507172 585.587708 301.702026 593.782532 311.105743 593.782532 C 320.375763 593.782532 328.704346 585.587708 328.704346 574.167358 C 328.704346 562.746948 320.375763 554.552124 311.105743 554.552124"/>
                </g>
                <g id="g3653">
                    <path id="path3655" fill="#000099" stroke="none" d="M 354.759888 524.866699 C 354.759888 519.763672 359.060577 515.462952 364.163635 515.462952 C 369.266663 515.462952 373.567352 519.763672 373.567352 524.866699 C 373.567352 529.969727 369.266663 534.270447 364.163635 534.270447 C 359.060577 534.270447 354.759888 529.969727 354.759888 524.866699 M 372.224731 605.333435 L 356.102509 605.333435 L 356.102509 543.000183 L 372.224731 543.000183 L 372.224731 605.333435 Z"/>
                </g>
                <g id="g3657">
                    <path id="path3659" fill="#000099" stroke="none" d="M 430.118713 593.108521 C 425.550568 602.779724 417.355713 607.080444 409.027161 607.080444 C 393.985474 607.080444 380.281006 594.317444 380.281006 574.167358 C 380.281006 554.017212 393.985474 541.254272 409.027161 541.254272 C 417.355713 541.254272 425.550568 545.554932 430.118713 555.226135 C 430.386169 555.761047 430.787354 555.627319 430.787354 555.092407 L 430.787354 543.003418 L 446.909576 543.003418 L 446.909576 605.331299 L 430.787354 605.331299 L 430.787354 593.242249 C 430.787354 592.707336 430.386169 592.573608 430.118713 593.108521 M 413.461578 554.552124 C 404.057861 554.552124 395.863007 562.746948 395.863007 574.167358 C 395.863007 585.587708 404.057861 593.782532 413.461578 593.782532 C 422.731598 593.782532 431.060181 585.587708 431.060181 574.167358 C 431.060181 562.746948 422.731598 554.552124 413.461578 554.552124"/>
                </g>
                <g id="g3661">
                    <path id="path3663" fill="#000099" stroke="none" d="M 527.102417 592.7052 C 527.102417 592.170288 526.695862 592.03125 526.428406 592.571472 C 521.865662 602.242676 513.804504 606.543396 505.60965 606.543396 C 490.69635 606.543396 477.131012 593.914124 477.131012 573.897766 C 477.131012 553.881348 490.69635 541.257446 505.60965 541.257446 C 513.804504 541.257446 521.865662 545.552795 526.428406 555.223999 C 526.695862 555.764221 527.102417 555.630493 527.102417 555.090271 L 527.102417 543.001282 L 543.219299 543.001282 L 543.219299 601.707764 C 543.219299 619.033569 531.264038 632.47052 510.578979 632.47052 C 499.024933 632.47052 488.952545 628.437317 481.560059 621.585083 L 491.236603 611.106201 C 497.682281 616.2146 502.785339 618.899841 510.311584 618.899841 C 522.133118 618.899841 527.102417 610.571289 527.102417 600.226074 L 527.102417 592.7052 Z M 510.038788 554.555359 C 500.774078 554.555359 492.712952 562.616455 492.712952 573.897766 C 492.712952 585.184387 500.774078 593.240112 510.038788 593.240112 C 519.175049 593.240112 527.369873 585.184387 527.369873 573.897766 C 527.369873 562.616455 519.175049 554.555359 510.038788 554.555359"/>
                </g>
                <g id="g3665">
                    <path id="path3667" fill="#000099" stroke="none" d="M 570.891296 543.00177 L 570.891296 556.567139 C 570.891296 556.839966 571.158752 556.973694 571.29248 556.567139 C 573.442871 545.419617 578.278442 541.252625 586.606995 541.252625 L 588.088745 541.252625 L 588.088745 558.182556 L 580.829956 558.182556 C 574.250549 558.182556 570.891296 563.285645 570.891296 570.539063 L 570.891296 605.335022 L 554.769104 605.335022 L 554.769104 543.00177 L 570.891296 543.00177 Z"/>
                </g>
                <g id="g3669">
                    <path id="path3671" fill="#000099" stroke="none" d="M 622.34021 540.986816 C 640.473694 540.986816 655.387024 555.900146 655.387024 574.167358 C 655.387024 592.43457 640.473694 607.3479 622.34021 607.3479 C 603.939209 607.3479 589.025879 592.43457 589.025879 574.167358 C 589.025879 555.900146 603.939209 540.986816 622.34021 540.986816 M 622.206482 555.627319 C 612.535278 555.627319 604.60791 563.688416 604.60791 574.167358 C 604.60791 584.64624 612.535278 592.707336 622.206482 592.707336 C 631.877625 592.707336 639.805054 584.64624 639.805054 574.167358 C 639.805054 563.688416 631.877625 555.627319 622.206482 555.627319"/>
                </g>
                <g id="g3673">
                    <path id="path3675" fill="#000099" stroke="none" d="M 688.831787 607.3479 C 673.116089 607.3479 663.038391 597.810425 663.038391 583.838501 L 663.038391 543.003418 L 679.160645 543.003418 L 679.160645 582.629639 C 679.160645 588.807861 683.188477 592.841064 689.232971 592.841064 C 694.742554 592.841064 698.909546 588.674133 698.909546 582.763367 L 698.909546 543.003418 L 715.026428 543.003418 L 715.026428 583.838501 C 715.026428 597.810425 704.146301 607.3479 688.831787 607.3479"/>
                </g>
                <g id="g3677">
                    <path id="path3679" fill="#000099" stroke="none" d="M 742.964844 555.226135 C 747.532959 545.554932 755.727844 541.254272 764.056335 541.254272 C 779.103394 541.254272 792.80249 554.017212 792.80249 574.167358 C 792.80249 594.317444 779.103394 607.080444 764.056335 607.080444 C 755.727844 607.080444 747.532959 602.779724 742.964844 593.108521 C 742.697388 592.573608 742.296204 592.707336 742.296204 593.242249 L 742.296204 630.990967 L 726.17395 630.990967 L 726.17395 543.003418 L 742.296204 543.003418 L 742.296204 555.092407 C 742.296204 555.627319 742.697388 555.761047 742.964844 555.226135 M 759.621948 593.782532 C 769.025696 593.782532 777.22052 585.587708 777.22052 574.167358 C 777.22052 562.746948 769.025696 554.552124 759.621948 554.552124 C 750.35199 554.552124 742.023376 562.746948 742.023376 574.167358 C 742.023376 585.587708 750.35199 593.782532 759.621948 593.782532"/>
                </g>
            </g>
        </g>
    </g>
</svg>
