<svg width="800" height="460" viewBox="0 0 800 460" xmlns="http://www.w3.org/2000/svg">
    <path fill="#0067a4" d="M 590.618835 264.225616 C 586.501953 244.326736 578.626038 227.871338 567.264648 212.896271 C 543.983154 182.181274 506.270752 162.768066 455.227295 162.768066 C 375.874817 162.768066 327.086121 216.633484 312.637787 273.410156 C 299.661591 233.373917 264.934326 206.364136 228.251907 194.951813 C 255.859741 174.831909 270.316833 146.050934 270.316833 113.195374 C 270.316833 82.698517 257.617035 54.938385 236.357651 36.871765 C 205.168274 10.368011 162.655319 4.958496 110.270569 4.958496 L 7.872264 4.958496 L 7.872264 446.956757 C 36.885361 446.956757 66.707283 446.825897 95.778572 446.956757 C 121.643631 447.076019 146.903519 446.918945 170.458481 445.979584 C 245.016205 442.992737 296.048035 405.475067 312.381744 349.140503 C 317.99115 374.187134 328.779419 394.606598 342.867004 410.102264 C 371.577545 441.692688 413.203125 454.041504 455.122589 454.041504 C 506.736298 454.041504 544.052979 439.075195 569.545593 416.148682 L 533.058105 373.282623 C 514.696594 387.120514 491.097961 395.278442 464.595734 395.278442 C 412.618286 395.11264 389.697601 362.242554 387.643524 330.628876 L 590.618835 330.628876 L 590.618835 446.956757 L 666.645813 446.956757 L 666.645813 7.165955 L 590.618835 7.165955 L 590.618835 264.225616 Z M 85.994064 64.672577 L 107.119621 64.66095 C 127.523636 64.66095 143.6362 66.853851 155.236206 71.355957 C 178.145264 80.240967 189.035355 98.450104 189.035355 121.196228 C 189.061539 140.429108 181.700623 170.652588 141.227173 178.915192 C 134.456863 180.296661 124.701462 181.061554 110.925186 181.061554 L 85.994064 181.061554 L 85.994064 64.672577 Z M 171.942291 382.260712 C 162.425461 383.970795 150.787643 384.354706 141.334824 384.354706 L 85.988251 384.354706 L 85.991158 240.159088 L 135.513 240.159088 C 151.142593 240.159088 168.826263 241.91571 178.962814 244.57103 C 213.704636 253.682877 233.663513 278.581177 233.663513 311.555969 C 233.663513 345.699921 215.28447 374.457581 171.942291 382.260712 Z M 389.042999 275.672852 C 395.743439 243.480408 419.551514 220.303818 454.639587 220.303818 C 489.765472 220.303818 513.131287 241.066483 519.188782 275.672852 L 389.042999 275.672852 Z M 717.395447 7.165955 L 792.127686 7.165955 L 792.127686 446.950958 L 717.395447 446.950958 Z"/>
</svg>
